P2
2 2
255
  1 255 
255   1  
