P2
58 64
255
255 255 255 255 255 255 255 255 255 255 255 255 255 255 255 255 255 255 255 255 255 255 255 255 255 255 255 255 255 255 255 255 253 240 229 236 250 255 255 255 255 255 255 255 255 255 255 255 255 255 255 255 255 255 255 255 255 255 
255 255 255 255 255 255 255 255 255 255 255 255 255 255 255 255 255 255 255 255 255 255 255 255 255 255 255 246 244 251 253 225 188 168 160 156 177 228 255 255 255 255 255 255 255 255 255 255 255 255 255 255 255 255 255 255 255 255 
255 255 255 255 255 255 255 255 255 255 255 255 255 255 255 255 255 255 255 255 255 255 255 255 255 224 181 160 159 168 186 157 155 157 162 169 161 160 225 255 255 255 255 255 255 255 255 255 255 255 255 255 255 255 255 255 255 255 
255 255 255 255 255 255 255 255 255 255 255 255 255 255 255 255 255 255 255 255 255 255 255 254 198 135 144 157 158 153 150 142 147 158 171 173 171 155 168 252 255 255 255 255 255 255 255 255 255 255 255 255 255 255 255 255 255 255 
255 255 255 255 255 255 255 255 255 255 255 255 255 255 255 255 255 255 255 255 255 255 255 207 125 139 151 150 157 149 138 147 160 170 172 173 172 164 161 248 255 255 255 255 255 255 255 255 255 255 255 255 255 255 255 255 255 255 
255 255 255 255 255 255 255 255 255 255 255 255 255 255 255 255 255 255 255 255 255 255 216 124 123 132 130 147 146 135 148 163 170 173 173 173 172 164 155 247 255 255 255 255 255 255 255 255 255 255 255 255 255 255 255 255 255 255 
255 255 255 255 255 255 255 255 255 255 255 255 255 255 255 255 255 255 255 255 255 214 127 119 122 122 141 141 134 147 164 170 173 173 173 173 172 157 181 253 255 255 255 255 255 255 255 255 255 255 255 255 255 255 255 255 255 255 
255 255 255 255 255 255 255 255 255 255 255 255 255 255 255 255 255 255 255 255 209 128 127 123 127 146 144 139 149 167 172 173 173 172 170 168 166 158 233 255 255 255 255 255 255 255 255 255 255 255 255 255 255 255 255 255 255 255 
255 255 255 255 255 255 255 255 255 255 255 255 255 255 255 255 255 255 255 214 131 131 122 126 150 143 142 153 169 173 172 170 168 165 164 166 148 207 255 255 255 255 255 255 255 255 255 255 255 255 255 255 255 255 255 255 255 255 
255 255 255 255 255 255 255 255 255 255 255 255 255 255 255 255 255 255 216 133 137 126 134 157 146 145 156 171 170 166 163 160 158 160 162 158 199 252 255 255 255 255 255 255 255 255 255 255 255 255 255 255 255 255 255 255 255 255 
255 255 255 255 255 255 255 255 255 255 255 255 255 255 255 255 255 230 143 140 128 136 164 156 155 161 166 157 152 149 150 154 153 153 157 219 255 255 255 255 255 255 255 255 255 255 255 255 255 255 255 255 255 255 255 255 255 255 
255 255 255 255 255 255 255 255 255 255 255 255 255 255 255 255 232 147 137 131 136 164 161 157 159 150 139 140 143 148 148 134 149 195 239 255 255 255 255 255 255 255 255 255 255 255 255 255 255 255 255 255 255 255 255 255 255 255 
255 255 255 255 255 255 255 255 255 255 255 255 255 255 249 210 129 122 127 137 163 167 160 152 137 136 138 129 117 118 139 184 240 255 255 255 255 255 255 255 255 255 255 255 255 255 255 255 255 255 255 255 255 255 255 255 255 255 
255 255 255 255 255 255 255 255 255 248 225 202 176 154 124 89 80 111 143 166 172 168 157 148 143 124 102 104 150 197 241 255 255 255 255 255 255 255 255 255 255 255 255 255 255 255 255 255 255 255 255 255 255 255 255 255 255 255 
255 255 255 255 255 255 255 240 183 125 94 82 78 77 79 87 102 137 168 172 171 164 154 137 119 108 147 213 254 255 255 255 255 255 255 255 255 255 255 255 255 255 255 255 255 255 255 255 255 255 255 255 255 255 255 255 255 255 
255 255 255 255 255 255 208 121 85 86 91 99 106 113 118 121 126 145 158 166 160 143 121 100 129 204 251 255 255 255 255 255 255 255 255 255 255 255 255 255 255 255 255 255 255 255 255 255 255 255 255 255 255 255 255 255 255 255 
255 255 255 255 255 202 105 97 112 126 138 147 150 151 149 137 132 139 147 144 131 111 104 165 240 255 255 255 255 255 255 255 255 255 255 255 255 255 255 255 255 255 255 255 255 255 255 255 255 255 255 255 255 255 255 255 255 255 
255 255 255 255 219 110 110 133 150 166 168 164 165 159 146 128 126 131 137 133 109 98 207 254 255 255 255 255 255 255 255 255 255 255 255 255 255 255 255 255 255 255 255 255 255 255 255 255 255 255 255 255 255 255 255 255 255 255 
255 255 255 243 137 116 146 161 171 172 167 162 165 158 142 131 130 138 139 131 98 97 231 255 255 255 255 255 255 255 255 255 255 255 255 255 255 255 255 255 255 255 255 255 255 255 255 255 255 255 255 255 255 255 255 255 255 255 
255 255 255 179 113 150 164 172 168 161 160 156 159 159 147 138 138 151 141 130 95 87 213 255 255 255 255 255 255 255 255 255 255 255 255 255 255 255 255 255 255 255 255 255 255 255 255 255 255 255 255 255 255 255 255 255 255 255 
255 255 232 122 139 165 172 170 166 158 146 148 164 169 156 141 151 155 139 124 96 81 138 249 255 255 255 255 255 255 255 255 255 255 255 255 255 255 255 255 255 255 255 255 255 255 255 255 255 255 255 255 255 255 255 255 255 255 
255 255 181 122 160 173 172 168 159 153 159 169 173 172 164 153 153 152 139 123 101 89 85 185 244 255 255 255 255 255 255 255 255 255 255 255 255 255 255 255 255 255 255 255 255 255 255 255 255 255 255 255 255 255 255 255 255 255 
255 247 144 147 170 174 172 164 156 162 172 173 172 172 170 162 155 151 139 130 109 101 81 80 118 172 213 248 255 255 255 255 255 255 255 255 255 255 255 255 255 255 255 255 255 255 255 255 255 255 255 255 255 255 255 255 255 255 
255 217 131 161 173 173 171 161 160 171 172 169 173 172 170 167 162 155 146 145 127 111 88 77 72 72 83 133 218 253 251 241 231 217 202 188 185 197 217 240 255 255 255 255 255 255 255 255 255 255 255 255 255 255 255 255 255 255 
255 185 134 169 173 172 171 166 169 173 172 173 174 173 172 168 162 156 155 157 131 100 92 88 83 76 72 68 92 138 127 105 91 82 75 73 74 76 85 108 154 214 253 255 255 255 255 255 255 255 255 255 255 255 255 255 255 255 
255 177 141 167 173 172 172 169 168 172 173 174 173 173 173 167 162 159 158 139 105 102 105 105 90 75 70 69 69 68 70 72 74 78 80 82 83 84 82 79 75 89 154 231 255 255 255 255 255 255 255 255 255 255 255 255 255 255 
255 205 136 160 171 173 173 169 165 171 173 173 173 172 169 163 160 169 146 105 108 127 132 116 89 73 71 73 77 84 90 92 93 92 96 101 101 98 94 89 87 82 78 106 189 250 255 255 255 255 255 255 255 255 255 255 255 255 
255 232 116 142 169 173 173 168 163 166 165 163 163 162 163 160 165 156 115 112 132 137 114 87 74 73 76 84 93 104 108 110 114 116 120 118 118 114 107 99 95 91 86 80 82 152 241 255 255 255 255 255 255 255 255 255 255 255 
255 251 145 114 158 169 167 155 149 151 139 138 143 143 149 162 160 126 119 126 147 131 96 78 76 79 88 98 113 120 119 121 126 130 138 140 136 128 121 112 106 103 100 95 84 76 135 239 255 255 255 255 255 255 255 255 255 255 
255 255 212 111 134 158 151 137 118 109 99 108 116 137 156 156 132 123 133 137 142 109 84 80 83 92 103 114 124 126 130 134 140 146 149 149 140 136 132 126 120 112 108 105 97 90 79 136 239 255 255 255 255 255 255 255 255 255 
255 255 254 207 128 113 105 91 83 82 94 118 131 146 150 140 133 141 147 137 126 104 88 88 96 111 117 130 138 145 143 142 148 154 160 155 146 144 147 143 136 123 111 110 107 101 94 79 136 242 255 255 255 255 255 255 255 255 
255 255 255 255 233 187 158 158 121 92 113 141 147 141 142 137 141 148 146 130 113 102 91 95 110 120 123 137 147 148 145 152 161 163 163 151 154 155 157 153 140 132 123 113 110 109 104 92 78 163 252 255 255 255 255 255 255 255 
255 255 255 255 255 255 255 255 206 108 112 139 137 139 135 140 148 155 141 118 108 97 100 104 116 123 132 139 149 153 154 162 164 163 161 158 166 171 167 164 159 151 140 127 114 111 108 101 88 86 205 255 255 255 255 255 255 255 
255 255 255 255 255 255 255 255 219 100 111 137 141 150 133 146 161 159 123 114 112 100 109 114 119 130 137 135 154 160 162 165 165 164 164 166 171 172 170 167 164 156 148 139 124 115 113 106 99 78 125 245 255 255 255 255 255 255 
255 255 255 255 255 255 255 255 216 100 115 134 148 151 129 153 168 143 115 119 108 106 118 114 121 134 137 144 157 164 166 166 163 161 165 168 171 170 171 171 170 164 157 147 135 123 114 109 102 90 81 204 255 255 255 255 255 255 
255 255 255 255 255 255 255 255 201 100 115 134 150 145 135 161 159 128 115 116 107 122 118 115 130 137 140 152 157 165 167 164 149 157 166 168 168 170 172 171 171 171 165 155 142 136 123 118 111 102 81 160 255 255 255 255 255 255 
255 255 255 255 255 255 255 255 206 106 111 139 143 142 150 160 142 117 115 114 117 135 127 116 128 139 145 152 160 164 168 150 136 160 166 167 168 171 172 172 172 171 170 163 147 141 128 120 119 111 90 122 246 255 255 255 255 255 
255 255 255 255 255 255 255 255 224 105 109 146 139 137 162 156 126 111 123 122 124 143 138 124 125 126 145 155 162 156 150 131 135 163 166 168 170 172 173 173 173 172 171 170 155 144 135 124 120 115 97 85 200 255 255 255 255 255 
255 255 255 255 255 255 255 255 246 130 105 143 147 136 159 158 114 104 135 126 125 138 129 124 128 127 132 150 142 123 112 114 136 158 161 170 172 173 173 173 173 172 171 171 164 147 138 132 125 118 103 80 138 252 255 255 255 255 
255 255 255 255 255 255 255 255 255 187 101 125 133 143 161 158 112 102 128 133 110 97 86 87 91 99 109 118 112 108 108 132 147 155 161 170 171 172 173 173 173 172 171 170 167 153 139 135 128 116 107 86 111 244 255 255 255 255 
255 255 255 255 255 255 255 255 255 238 131 108 116 141 167 165 118 102 108 100 80 76 83 90 93 93 98 99 110 105 130 151 157 165 169 171 171 172 172 173 173 172 171 170 167 159 145 136 130 116 108 89 110 242 255 255 255 255 
255 255 255 255 255 255 255 255 255 255 212 107 100 124 145 156 123 126 112 78 78 90 98 102 112 123 119 126 136 135 146 159 166 168 172 173 172 172 172 171 173 172 171 169 166 160 150 138 132 115 106 89 124 248 255 255 255 255 
255 255 255 255 255 255 255 255 255 255 254 189 96 109 126 139 121 130 131 82 95 109 121 129 133 139 145 155 156 153 152 163 162 166 172 173 173 173 174 172 172 172 171 170 165 159 153 141 130 112 105 88 138 254 255 255 255 255 
255 255 255 255 255 255 255 255 255 255 255 252 181 98 110 136 117 122 117 88 114 128 139 145 151 158 160 162 161 158 162 167 161 162 170 173 174 172 174 174 173 171 172 169 163 160 157 144 123 111 106 87 138 254 255 255 255 255 
255 255 255 255 255 255 255 255 255 255 255 255 253 205 120 104 114 122 99 100 128 132 143 153 156 164 168 169 165 163 168 171 165 159 167 173 174 173 174 174 173 171 169 165 163 160 156 145 125 110 104 86 137 254 255 255 255 255 
255 255 255 255 255 255 255 255 255 255 255 255 255 255 235 160 113 120 98 113 132 129 138 151 157 161 163 165 164 166 172 174 166 159 168 172 173 172 173 174 173 169 166 164 163 160 154 144 129 110 102 86 149 255 255 255 255 255 
255 255 255 255 255 255 255 255 255 255 255 255 255 255 255 253 194 112 106 126 125 130 137 141 147 157 162 164 167 170 172 173 168 161 170 171 171 167 164 169 170 165 164 162 160 160 153 143 130 113 100 87 154 255 255 255 255 255 
255 255 255 255 255 255 255 255 255 255 255 255 255 255 255 255 242 127 114 110 109 126 142 134 135 148 160 164 168 169 169 171 169 166 171 170 170 169 164 160 163 160 162 160 158 157 152 142 128 119 107 91 137 252 255 255 255 255 
255 255 255 255 255 255 255 255 255 255 255 255 255 255 255 255 255 167 114 117 94 115 138 136 132 141 150 157 158 163 169 171 169 170 172 170 170 171 170 164 160 163 164 159 159 157 150 142 132 125 117 90 108 162 188 236 255 255 
255 255 255 255 255 255 255 255 255 255 255 255 255 255 255 255 255 198 107 129 96 96 119 139 146 142 144 151 159 162 167 171 171 171 172 171 171 172 171 166 163 164 163 159 159 156 146 144 137 144 117 77 72 72 80 111 214 255 
255 255 255 255 255 255 255 255 255 255 255 255 255 255 255 227 188 135 100 136 120 92 98 132 155 158 150 156 164 161 163 168 171 170 169 170 169 168 166 163 162 163 162 159 159 153 145 147 150 141 90 84 96 107 101 85 143 251 
255 255 255 255 255 255 255 255 255 255 255 255 255 252 187 109 98 93 106 135 151 109 84 113 144 158 148 153 159 155 156 159 164 164 162 155 150 149 150 156 162 166 161 159 158 150 147 156 147 96 100 120 138 149 135 107 113 237 
255 255 255 255 255 255 255 255 255 255 255 255 255 215 105 114 129 128 134 139 153 104 84 92 119 138 139 141 158 154 146 145 146 155 154 147 141 141 141 144 161 163 159 161 156 147 154 154 123 109 135 142 158 155 152 121 101 220 
255 255 255 255 255 255 255 255 255 255 255 255 255 171 115 141 150 147 150 139 110 74 84 95 111 129 137 131 147 158 155 153 148 148 149 144 146 154 159 160 161 163 166 164 151 147 157 143 117 123 148 158 169 165 152 117 120 236 
255 255 255 255 255 255 255 255 255 255 255 255 255 157 131 162 162 161 163 123 73 78 81 94 109 125 147 148 147 152 156 154 155 151 146 149 164 169 170 168 164 166 164 155 146 151 154 119 122 146 165 172 172 165 141 107 159 254 
255 255 255 255 255 255 255 255 255 255 255 255 255 196 135 157 165 166 164 98 71 87 102 89 94 102 135 150 155 155 152 146 143 145 153 166 168 167 166 165 165 163 154 142 141 149 132 110 140 160 169 172 168 155 126 111 216 255 
255 255 255 255 255 255 255 255 255 255 255 255 255 251 205 172 163 164 151 89 85 111 128 120 86 92 109 125 133 139 146 148 151 157 164 168 165 164 159 153 154 151 135 134 144 132 120 132 156 167 170 168 158 140 111 163 252 255 
255 255 255 255 255 255 255 255 255 255 255 255 255 255 255 252 243 237 197 93 99 148 156 155 132 100 125 130 124 134 152 161 153 152 154 154 149 142 139 139 134 124 120 131 127 119 122 153 163 160 160 151 141 118 130 233 255 255 
255 255 255 255 255 255 255 255 255 255 255 255 255 255 255 255 255 255 237 111 122 162 166 166 168 152 127 121 127 137 137 138 135 130 133 132 122 115 117 122 124 118 119 125 109 116 131 156 158 149 139 126 117 137 224 255 255 255 
255 255 255 255 255 255 255 255 255 255 255 255 255 255 255 255 255 255 246 138 133 162 165 165 166 168 166 149 125 111 113 111 107 104 105 112 121 131 138 142 128 111 110 98 102 111 129 133 126 115 107 123 178 239 255 255 255 255 
255 255 255 255 255 255 255 255 255 255 255 255 255 255 255 255 255 255 255 213 155 152 152 156 157 157 160 163 157 144 129 118 122 137 152 161 167 168 158 132 104 102 114 104 97 106 114 123 134 164 195 236 255 255 255 255 255 255 
255 255 255 255 255 255 255 255 255 255 255 255 255 255 255 255 255 255 255 255 244 223 203 184 168 159 153 154 152 150 150 145 143 148 158 163 168 157 134 139 183 216 235 232 222 221 224 237 247 255 255 255 255 255 255 255 255 255 
255 255 255 255 255 255 255 255 255 255 255 255 255 255 255 255 255 255 255 255 255 255 255 255 250 242 230 216 194 173 156 144 140 140 147 146 138 143 190 242 255 255 255 255 255 255 255 255 255 255 255 255 255 255 255 255 255 255 
255 255 255 255 255 255 255 255 255 255 255 255 255 255 255 255 255 255 255 255 255 255 255 255 255 255 255 255 255 252 240 219 196 186 179 179 194 234 255 255 255 255 255 255 255 255 255 255 255 255 255 255 255 255 255 255 255 255 
